<?xml version="1.0" encoding="UTF-8" standalone="no"?>
<svg
   xmlns:dc="http://purl.org/dc/elements/1.1/"
   xmlns:cc="http://creativecommons.org/ns#"
   xmlns:rdf="http://www.w3.org/1999/02/22-rdf-syntax-ns#"
   xmlns:svg="http://www.w3.org/2000/svg"
   xmlns="http://www.w3.org/2000/svg"
   xmlns:sodipodi="http://sodipodi.sourceforge.net/DTD/sodipodi-0.dtd"
   xmlns:inkscape="http://www.inkscape.org/namespaces/inkscape"
   version="1.1"
   x="0px"
   y="0px"
   viewBox="-11.819 -23.763 76.360001 76.360001"
   enable-background="new -11.819 -23.763 100 100"
   xml:space="preserve"
   id="svg3765"
   sodipodi:docname="binoculars.svg"
   width="76.360001"
   height="76.360001"
   inkscape:version="0.92.2 5c3e80d, 2017-08-06"><metadata
     id="metadata3771"><rdf:RDF><cc:Work
         rdf:about=""><dc:format>image/svg+xml</dc:format><dc:type
           rdf:resource="http://purl.org/dc/dcmitype/StillImage" /><dc:title></dc:title></cc:Work></rdf:RDF></metadata><defs
     id="defs3769" /><sodipodi:namedview
     pagecolor="#ffffff"
     bordercolor="#666666"
     borderopacity="1"
     objecttolerance="10"
     gridtolerance="10"
     guidetolerance="10"
     inkscape:pageopacity="0"
     inkscape:pageshadow="2"
     inkscape:window-width="1366"
     inkscape:window-height="745"
     id="namedview3767"
     showgrid="false"
     fit-margin-top="0"
     fit-margin-left="0"
     fit-margin-right="0"
     fit-margin-bottom="0"
     inkscape:zoom="4.152"
     inkscape:cx="38.181"
     inkscape:cy="33.742734"
     inkscape:window-x="0"
     inkscape:window-y="23"
     inkscape:window-maximized="0"
     inkscape:current-layer="svg3765"
     inkscape:snap-global="true"
     inkscape:snap-bbox="true"
     inkscape:bbox-paths="true"
     inkscape:bbox-nodes="true"
     inkscape:snap-bbox-edge-midpoints="true"
     inkscape:snap-bbox-midpoints="true"
     inkscape:object-paths="true"
     inkscape:snap-intersection-paths="true"
     inkscape:snap-smooth-nodes="true"
     inkscape:snap-midpoints="true" /><path
     d="m 56.389,4.7003508 0.006,-0.016 c 0,0 -5.099,-6.982 -13.169,-6.578 v -0.018 c -8.284,-11.3909998 -14.67,-1.381 -14.67,-1.381 l 0.011,-0.021 c -0.64,-0.355 -1.394,-0.561 -2.198,-0.561 -0.799,0 -1.547,0.203 -2.185,0.553 l 0.015,0.029 c 0,0 -6.385,-10.0099998 -14.6689999,1.381 v 0.018 c -8.071,-0.404 -13.169,6.578 -13.169,6.578 -4.9049998,2.982 -8.1800001,8.3770002 -8.1800001,14.5350002 0,9.389 7.6110001,17 17.001,17 8.524,0 15.583,-6.275 16.81,-14.459 0,0 1.278,1.715 4.111,1.715 2.832,0 4.631,-1.686 4.631,-1.686 1.239,8.169 8.293,14.43 16.808,14.43 9.388,0 16.999,-7.611 16.999,-17 C 64.54,13.072351 61.277,7.6863508 56.389,4.7003508 Z M 4.663,31.385351 c -6.4339999,0 -11.6479997,-5.215 -11.6479997,-11.648 0,-6.433 5.2149998,-11.6490002 11.6479997,-11.6490002 6.433,0 11.649,5.2160002 11.649,11.6490002 0,6.433 -5.215,11.648 -11.649,11.648 z m 21.706,-12.825 c -2.335,0 -4.228,-1.894 -4.228,-4.229 0,-2.334 1.893,-4.227999 4.228,-4.227999 2.336,0 4.229,1.893999 4.229,4.227999 0,2.335 -1.894,4.229 -4.229,4.229 z m 21.171,12.825 c -6.434,0 -11.649,-5.215 -11.649,-11.648 0,-6.433 5.216,-11.6490002 11.649,-11.6490002 6.433,0 11.65,5.2160002 11.65,11.6490002 0,6.433 -5.216,11.648 -11.65,11.648 z"
     id="path3755"
     inkscape:connector-curvature="0"
     style="fill:#800080" /><path
     d="m -2.3499999,18.772351 c -0.369,-0.977 -0.586,-1.972 -0.689,-2.964 -1.188,2.093 -1.471,4.678 -0.554,7.104 1.638,4.33 6.476,6.514 10.807,4.877 0.907,-0.344 1.712,-0.832 2.415,-1.422 -5.1080001,0.404 -10.07700015,-2.562 -11.979,-7.595 z"
     id="path3757"
     inkscape:connector-curvature="0" /><path
     d="m 41.485,18.772351 c -0.369,-0.977 -0.587,-1.972 -0.69,-2.964 -1.187,2.093 -1.47,4.678 -0.553,7.104 1.637,4.33 6.477,6.514 10.807,4.877 0.906,-0.344 1.713,-0.832 2.416,-1.422 -5.108,0.404 -10.079,-2.562 -11.98,-7.595 z"
     id="path3759"
     inkscape:connector-curvature="0" /></svg>