<?xml version="1.0" standalone="no"?>
<!DOCTYPE svg PUBLIC "-//W3C//DTD SVG 20010904//EN"
 "http://www.w3.org/TR/2001/REC-SVG-20010904/DTD/svg10.dtd">
<svg version="1.0" xmlns="http://www.w3.org/2000/svg"
 width="937.000000pt" height="937.000000pt" viewBox="0 0 937.000000 937.000000"
 preserveAspectRatio="xMidYMid meet">
<metadata>
Created by potrace 1.11, written by Peter Selinger 2001-2013
</metadata>
<g transform="translate(0.000000,937.000000) scale(0.100000,-0.100000)"
fill="#000000" stroke="none">
<path d="M6927 7954 c-1 -1 -37 -5 -79 -9 -86 -7 -101 -9 -208 -30 -41 -9
-107 -17 -147 -20 l-72 -4 -134 -95 c-127 -90 -177 -134 -385 -337 -70 -69
-125 -109 -272 -200 -102 -62 -186 -117 -188 -121 -2 -4 -10 -8 -17 -8 -8 0
-20 -6 -27 -13 -12 -12 -161 -87 -173 -87 -4 0 -27 -10 -53 -22 -26 -12 -49
-23 -52 -23 -3 -1 -17 -7 -32 -13 -27 -11 -295 -10 -328 1 -13 5 -134 34 -171
41 -7 2 -21 6 -29 9 -8 3 -28 9 -45 13 -16 4 -34 8 -40 10 -41 12 -68 17 -127
23 -38 4 -68 4 -68 1 0 -3 -43 -4 -97 -3 -53 1 -117 -2 -142 -8 -25 -5 -63
-11 -84 -14 -55 -6 -115 -24 -122 -35 -3 -6 -12 -10 -19 -10 -7 0 -74 -29
-147 -64 l-134 -64 -25 23 c-14 12 -56 42 -95 66 -38 23 -81 54 -95 67 -23 22
-183 132 -205 141 -5 2 -22 16 -36 30 -15 14 -68 64 -118 111 -50 47 -110 104
-133 127 -22 23 -45 40 -49 37 -5 -3 -9 1 -9 8 -1 14 -159 135 -172 131 -4 -2
-8 1 -8 6 0 5 -33 30 -72 57 -40 27 -75 51 -78 54 -17 17 -197 133 -207 133
-7 0 -13 4 -13 8 0 4 -66 5 -148 2 l-147 -5 -62 -39 c-34 -22 -67 -39 -73 -39
-5 0 -12 -11 -16 -24 -4 -17 -15 -27 -35 -31 -53 -12 -96 -40 -187 -120 -60
-53 -97 -96 -112 -127 -12 -25 -52 -77 -87 -115 -35 -37 -69 -77 -74 -88 -28
-62 -72 -107 -133 -139 -27 -14 -54 -26 -60 -26 -6 0 -27 -14 -46 -31 -19 -17
-44 -39 -55 -48 -11 -9 -36 -47 -55 -86 -19 -38 -37 -72 -40 -75 -3 -3 -34
-61 -69 -129 -65 -127 -74 -138 -205 -251 -38 -33 -76 -76 -93 -107 -15 -29
-31 -53 -35 -53 -5 0 -8 -7 -8 -16 0 -9 -8 -28 -18 -42 -10 -15 -33 -56 -51
-91 -18 -35 -43 -73 -55 -85 -14 -12 -37 -63 -56 -123 -21 -65 -43 -113 -62
-133 -15 -17 -28 -35 -28 -40 0 -4 -4 -10 -10 -12 -5 -1 -21 -23 -35 -48 -25
-45 -31 -58 -86 -180 -16 -36 -40 -86 -54 -112 l-25 -47 26 -123 c15 -68 28
-130 29 -138 2 -8 4 -16 4 -17 1 -1 34 7 74 19 92 25 218 58 237 61 8 1 21 6
28 10 6 5 12 5 12 0 0 -4 5 -1 11 7 11 16 10 0 -5 -60 -4 -14 -9 -36 -11 -50
-2 -14 -7 -36 -11 -50 -9 -36 -9 -77 0 -140 4 -30 8 -63 9 -73 1 -17 30 -47
95 -99 21 -17 25 -16 97 17 l75 34 55 -69 c30 -38 58 -71 63 -74 6 -4 149 80
188 111 17 13 48 33 64 40 8 4 17 9 20 12 10 12 90 61 99 61 5 0 11 4 13 8 9
23 210 142 390 233 199 100 254 135 331 211 21 21 41 38 45 38 8 0 93 129 125
189 10 20 32 60 49 89 l30 52 31 -17 c18 -10 34 -21 37 -25 8 -11 166 -88 180
-88 7 0 20 -8 29 -18 9 -11 41 -47 71 -81 155 -177 183 -204 271 -261 46 -30
87 -59 91 -65 5 -6 8 -7 8 0 0 6 3 6 8 0 4 -6 21 -21 37 -34 17 -12 30 -26 30
-29 0 -4 4 -6 8 -4 5 1 5 -2 2 -8 -4 -6 5 -29 19 -50 14 -22 26 -44 26 -50 0
-5 5 -10 10 -10 6 0 10 -5 10 -11 0 -14 102 -182 113 -187 4 -2 7 -9 8 -15 0
-7 41 -43 91 -82 50 -38 97 -76 104 -82 7 -7 15 -13 19 -13 15 0 34 -29 31
-46 -3 -11 -12 -53 -22 -94 -9 -41 -18 -85 -18 -97 -1 -12 -5 -25 -9 -29 -4
-4 -7 -16 -7 -26 0 -10 -5 -18 -12 -18 -6 0 -9 -3 -5 -6 3 -3 -3 -16 -14 -28
-11 -11 -43 -53 -71 -91 -28 -39 -68 -83 -88 -97 -20 -15 -50 -38 -66 -52 -16
-14 -75 -62 -131 -106 -57 -45 -103 -87 -103 -93 0 -5 -3 -8 -6 -4 -5 4 -242
-182 -290 -228 -6 -5 -28 -23 -49 -40 -45 -36 -88 -72 -123 -102 -14 -13 -29
-23 -34 -23 -5 0 -6 -5 -3 -10 3 -5 1 -10 -4 -10 -12 0 -26 -11 -151 -120 -35
-30 -83 -74 -107 -97 -24 -22 -43 -38 -43 -35 -1 10 -46 -65 -77 -128 -15 -30
-31 -57 -35 -60 -4 -3 -9 -38 -13 -77 l-6 -72 28 5 c16 2 39 7 53 10 79 19
130 24 168 17 19 -3 30 -8 25 -12 -5 -3 -18 -37 -28 -76 -10 -38 -26 -96 -36
-129 -18 -55 -18 -80 -4 -190 2 -16 7 -32 12 -36 4 -3 55 -21 113 -39 101 -31
107 -31 142 -16 36 14 42 24 53 81 2 10 4 20 5 22 3 3 7 19 9 32 0 6 5 10 10
10 5 0 33 16 62 35 30 19 57 35 61 35 7 0 2 -55 -6 -69 -16 -26 -26 -208 -14
-261 4 -19 9 -62 11 -95 3 -51 1 -62 -19 -84 -13 -14 -22 -26 -20 -28 3 -3
226 -47 286 -57 19 -3 69 -12 110 -21 41 -9 80 -13 87 -11 7 3 13 1 13 -3 0
-5 7 -8 15 -7 20 3 20 8 -10 99 -15 43 -25 82 -23 88 3 9 80 -28 288 -139 63
-33 144 -77 180 -96 l65 -34 -1 -53 c-1 -46 2 -55 30 -79 17 -15 47 -43 67
-61 59 -55 170 -153 182 -161 6 -3 19 -4 29 -2 45 10 56 13 113 28 33 10 74
19 90 22 17 4 37 10 45 14 15 8 79 6 115 -3 44 -11 368 -87 388 -91 12 -2 30
-7 40 -11 14 -6 29 3 58 31 22 22 41 38 42 36 4 -6 120 -30 136 -28 9 2 26 27
41 63 24 58 26 61 85 82 33 13 89 34 124 48 42 16 74 23 95 19 27 -5 102 -15
149 -19 13 -2 29 25 61 106 25 59 42 107 38 107 -3 0 -1 5 6 12 7 7 12 19 12
28 1 19 111 95 119 81 9 -13 107 -125 161 -183 l45 -48 92 29 c51 16 94 26 97
23 4 -3 6 0 6 6 0 7 7 12 15 12 8 0 15 3 16 8 0 4 2 21 4 37 11 92 16 139 20
219 3 49 6 90 7 92 2 1 40 -6 84 -17 l81 -19 124 51 c128 53 141 60 145 81 1
7 12 51 24 98 12 47 23 92 25 100 2 8 8 34 14 56 l11 41 90 -1 c52 0 93 3 100
10 6 6 24 66 41 133 l30 122 -32 66 c-37 78 -34 86 36 116 72 32 70 29 100
121 l28 85 -44 53 c-67 81 -228 238 -245 238 -8 0 -14 4 -14 8 0 4 -13 16 -30
25 -16 10 -35 23 -42 30 -14 13 -50 32 -88 46 -14 5 -99 59 -189 120 -90 61
-167 111 -172 111 -5 0 -9 5 -9 10 0 6 -7 10 -15 10 -8 0 -15 5 -15 10 0 6 -6
10 -14 10 -8 0 -16 4 -18 9 -1 4 -50 42 -108 84 -58 42 -111 81 -118 87 -7 6
-32 9 -56 6 -27 -3 -55 0 -73 8 -15 8 -48 23 -73 34 -82 36 -125 55 -130 57
-67 26 -66 25 -66 63 -1 20 -4 55 -8 77 -4 22 -9 63 -12 90 -2 28 -6 61 -9 75
-3 14 -7 43 -10 65 -5 38 -26 65 -50 65 -8 0 -10 12 -6 37 6 35 8 37 46 39 22
2 49 5 60 8 11 2 25 5 32 5 11 1 177 131 198 155 6 7 19 18 31 26 78 54 233
201 304 288 19 24 42 51 50 61 13 16 51 45 130 99 14 9 34 25 44 34 11 10 23
18 28 18 4 0 8 7 8 17 0 9 3 13 7 10 3 -4 11 3 18 16 7 12 22 41 35 65 29 55
42 61 119 57 l63 -4 33 74 34 74 93 -48 c51 -26 143 -69 203 -95 61 -27 120
-55 132 -62 32 -20 109 -63 178 -101 113 -60 180 -96 225 -120 25 -13 52 -28
60 -33 18 -11 425 -208 460 -223 14 -6 28 -10 33 -9 4 1 7 -3 7 -9 0 -5 5 -7
10 -4 6 3 10 1 10 -4 0 -6 3 -10 8 -9 10 2 66 -25 74 -37 4 -5 8 -7 8 -3 0 12
114 -50 145 -79 17 -16 53 -46 80 -68 28 -22 57 -48 66 -57 9 -10 21 -18 27
-18 6 0 12 -5 14 -11 2 -6 21 -8 54 -4 47 7 50 9 68 51 20 48 28 53 48 27 7
-10 23 -26 35 -37 l22 -18 36 75 c19 42 35 81 35 86 0 6 19 8 48 5 150 -17
211 -24 239 -29 32 -5 33 2 7 59 -13 29 -31 93 -39 142 -9 49 -18 100 -21 114
-2 14 -1 19 2 13 3 -7 12 -13 19 -13 8 0 18 -6 22 -13 9 -15 354 -197 373
-197 8 0 10 9 5 28 -4 15 -9 37 -11 50 -9 48 -12 69 -19 107 -20 125 -26 137
-113 244 -46 57 -93 123 -103 145 -10 23 -22 45 -26 50 -4 4 -8 11 -8 14 -1
11 -39 72 -45 72 -4 0 -7 6 -7 13 0 6 -41 82 -91 169 -51 86 -92 159 -92 162
0 9 -68 105 -119 167 -25 31 -53 67 -61 79 -8 13 -23 32 -32 42 -10 10 -18 21
-18 26 0 4 -27 25 -60 47 -33 22 -60 43 -60 48 0 4 -5 7 -10 7 -29 0 -103 76
-175 178 -44 62 -84 119 -90 125 -5 7 -30 39 -55 72 -25 33 -48 62 -52 63 -5
2 -8 9 -8 15 0 7 -16 30 -35 52 -53 60 -56 65 -50 65 3 0 -3 10 -15 22 -11 12
-20 28 -20 35 0 7 -3 13 -8 13 -4 0 -13 14 -21 31 -19 43 -50 74 -123 123 -56
38 -73 56 -121 130 -17 28 -373 384 -428 429 -25 20 -53 37 -63 37 -9 0 -16 4
-16 8 0 5 -12 15 -27 23 -28 14 -43 23 -118 72 -32 21 -51 26 -88 25 -27 -1
-49 -3 -50 -4z m-1837 -1180 c0 -8 -19 -13 -24 -6 -3 5 1 9 9 9 8 0 15 -2 15
-3z m-2880 -644 c0 -5 -2 -10 -4 -10 -3 0 -8 5 -11 10 -3 6 -1 10 4 10 6 0 11
-4 11 -10z m2720 -2720 c0 -5 -2 -10 -4 -10 -3 0 -8 5 -11 10 -3 6 -1 10 4 10
6 0 11 -4 11 -10z"/>
</g>
</svg>
